<?xml version="1.0" encoding="utf-8"?>
<!-- Generator: Adobe Illustrator 16.0.0, SVG Export Plug-In . SVG Version: 6.00 Build 0)  -->
<!DOCTYPE svg PUBLIC "-//W3C//DTD SVG 1.1//EN" "http://www.w3.org/Graphics/SVG/1.1/DTD/svg11.dtd">
<svg version="1.1" xmlns="http://www.w3.org/2000/svg" xmlns:xlink="http://www.w3.org/1999/xlink" x="0px" y="0px"
	 width="344.333px" height="58.333px" viewBox="0 0 344.333 58.333" enable-background="new 0 0 344.333 58.333"
	 xml:space="preserve">
<g id="Layer_3">
</g>
<g id="Layer_1">
</g>
<g id="Layer_2">
	<g>
		<g>
			<path fill="#FFFFFF" d="M71.827,32.479v15.24h-2.44V12.741h8.326c4.338,0,7.544,0.802,9.618,2.404
				c2.073,1.604,3.11,4.016,3.11,7.238c0,2.345-0.618,4.323-1.854,5.934c-1.236,1.611-3.115,2.768-5.635,3.469l9.499,15.934h-2.919
				l-9.02-15.24H71.827z M71.827,30.374h6.675c2.951,0,5.24-0.658,6.867-1.974c1.627-1.315,2.44-3.257,2.44-5.826
				c0-2.664-0.798-4.602-2.393-5.814c-1.595-1.212-4.195-1.818-7.8-1.818h-5.79V30.374z"/>
			<path fill="#FFFFFF" d="M117.621,47.72H98.504V12.741h19.117v2.249h-16.676v13.231h15.743v2.249h-15.743v15.002h16.676V47.72z"/>
			<path fill="#FFFFFF" d="M142.384,35.375h-14.212l-4.881,12.345h-2.704l14.068-35.123h1.555l13.781,35.123h-2.751L142.384,35.375z
				 M129.057,33.173h12.513l-4.761-12.609c-0.399-0.989-0.877-2.36-1.436-4.115c-0.431,1.531-0.901,2.919-1.412,4.163
				L129.057,33.173z"/>
			<path fill="#FFFFFF" d="M169.875,14.439c-4.387,0-7.84,1.404-10.359,4.211c-2.521,2.808-3.781,6.651-3.781,11.532
				c0,4.993,1.188,8.869,3.565,11.628c2.376,2.76,5.774,4.14,10.192,4.14c2.934,0,5.63-0.375,8.086-1.125v2.153
				c-2.313,0.813-5.199,1.22-8.66,1.22c-4.913,0-8.781-1.586-11.604-4.761c-2.823-3.174-4.235-7.608-4.235-13.303
				c0-3.557,0.674-6.691,2.022-9.403c1.348-2.711,3.286-4.805,5.813-6.28c2.529-1.476,5.468-2.213,8.817-2.213
				c3.413,0,6.468,0.638,9.163,1.914l-0.98,2.201C175.361,15.078,172.681,14.439,169.875,14.439z"/>
			<path fill="#FFFFFF" d="M194.494,47.72h-2.465V15.038h-11.364v-2.297h25.194v2.297h-11.365V47.72z"/>
			<path fill="#F1602A" d="M239.522,29.896c0,5.758-1.64,10.168-4.917,13.23s-8.012,4.594-14.199,4.594H210.5V12.741h10.982
				c5.71,0,10.145,1.507,13.303,4.522S239.522,24.488,239.522,29.896z M231.818,30.087c0-7.513-3.318-11.269-9.953-11.269h-3.947
				v22.777h3.182C228.245,41.595,231.818,37.759,231.818,30.087z"/>
			<path fill="#F1602A" d="M278.521,30.183c0,5.79-1.436,10.24-4.307,13.351s-6.986,4.665-12.346,4.665s-9.475-1.555-12.346-4.665
				s-4.307-7.576-4.307-13.398c0-5.822,1.439-10.268,4.318-13.338c2.879-3.071,7.006-4.606,12.381-4.606
				c5.377,0,9.488,1.547,12.334,4.642C277.097,19.927,278.521,24.377,278.521,30.183z M252.992,30.183
				c0,3.908,0.742,6.852,2.225,8.828c1.484,1.979,3.701,2.967,6.652,2.967c5.918,0,8.877-3.932,8.877-11.795
				c0-7.879-2.943-11.819-8.83-11.819c-2.949,0-5.176,0.993-6.674,2.979C253.742,23.328,252.992,26.275,252.992,30.183z"/>
			<path fill="#F1602A" d="M299.265,47.72h-7.417V18.914h-9.499v-6.173h26.414v6.173h-9.498V47.72z"/>
			<path fill="#F1602A" d="M335.56,47.72l-2.537-8.326h-12.752l-2.536,8.326h-7.991l12.346-35.123h9.068L343.55,47.72H335.56z
				 M331.253,33.173c-2.346-7.544-3.665-11.811-3.96-12.8c-0.296-0.989-0.507-1.771-0.634-2.345
				c-0.527,2.042-2.034,7.09-4.522,15.145H331.253z"/>
		</g>
		<path fill="#F1602A" d="M0.836,37.823c0,0,0.298-39.196,45.521-29.638C67.09,15.561,12.537-4.952,0.836,37.823z"/>
		<path fill="#F1602A" d="M33.844,0.816c0,0,34.51,18.583,4.924,54.097C22.557,69.794,66.188,31.152,33.844,0.816z"/>
		<path fill="#F1602A" d="M49.455,48.909c0,0-35.05,17.547-47.083-27.084C-0.479,0.005,6.035,57.925,49.455,48.909z"/>
	</g>
</g>
</svg>
